<svg xmlns="http://www.w3.org/2000/svg" viewBox="0 0 24 24" width="192" height="192">
  <rect width="24" height="24" rx="4" fill="#F8FAFC"/>
  <g transform="translate(2 2) scale(0.83)" fill="none" stroke="#3B82F6" stroke-width="2.4" stroke-linecap="round" stroke-linejoin="round">
    <path d="m16 16 3-8 3 8c-.87.65-1.92 1-3 1s-2.13-.35-3-1Z"/>
    <path d="m2 16 3-8 3 8c-.87.65-1.92 1-3 1s-2.13-.35-3-1Z"/>
    <path d="M7 21h10"/>
    <path d="M12 3v18"/>
    <path d="M3 7h2c2 0 5-1 7-2 2 1 5 2 7 2h2"/>
  </g>
</svg>
