<svg width="165" height="45" viewBox="0 0 165 45" fill="none" xmlns="http://www.w3.org/2000/svg">
<path fill-rule="evenodd" clip-rule="evenodd" d="M153.588 34.9794H153.232V35.8038H153.568C153.874 35.8038 154.065 35.6746 154.065 35.3918C154.065 35.1204 153.896 34.9794 153.588 34.9794ZM154.31 37.3773L153.496 36.184H153.232V37.3347H152.764V34.5461H153.588C154.16 34.5461 154.54 34.8371 154.54 35.3592C154.54 35.7603 154.33 36.0204 153.99 36.1297L154.774 37.269L154.31 37.3773ZM153.6 33.7974C152.457 33.7974 151.549 34.5996 151.549 36.0331C151.549 37.4526 152.457 38.2561 153.6 38.2561C154.753 38.2561 155.662 37.4526 155.662 36.0331C155.662 34.5996 154.743 33.7974 153.6 33.7974ZM153.6 38.5503C152.186 38.5503 151.2 37.5396 151.2 36.0331C151.2 34.5344 152.204 33.502 153.6 33.502C155.018 33.502 156 34.5226 156 36.0331C156 37.5314 154.995 38.5503 153.6 38.5503Z" fill="#0033A0"/>
<path fill-rule="evenodd" clip-rule="evenodd" d="M29.6261 25.2724H22.326C22.7811 24.5291 29.6261 13.1087 29.6261 13.1087V25.2724ZM26.5093 8.00146L8 38.5496H14.2922C14.2922 38.5496 18.8565 30.9443 19.0146 30.6846H29.6353L29.6398 38.5528L35.6123 38.5514V8.00146H26.5093Z" fill="#0033A0"/>
<path fill-rule="evenodd" clip-rule="evenodd" d="M39.8496 8V38.5527H45.6544V8.00091L39.8496 8Z" fill="#0033A0"/>
<path fill-rule="evenodd" clip-rule="evenodd" d="M49.8799 8H55.6759V38.5527H49.8799V8Z" fill="#0033A0"/>
<path fill-rule="evenodd" clip-rule="evenodd" d="M68.4501 24.1239C65.2936 23.2777 64.6327 22.8028 64.7166 21.4527C64.785 20.2285 65.7549 19.5247 67.3769 19.5247C69.3829 19.5247 71.8361 20.2503 73.9437 21.4644L74.2756 21.6598L75.0747 16.5616L74.8857 16.4701C72.7217 15.4558 70.1307 14.916 67.3769 14.916C64.7263 14.916 62.4731 15.7554 61.018 17.2772C59.8662 18.4905 59.2751 20.0618 59.3047 21.8062C59.4062 26.5164 61.5928 27.8488 66.7725 29.2161C70.1978 30.0836 70.8936 30.5989 70.868 32.2753C70.849 33.7822 69.9731 34.351 67.6439 34.351C65.2075 34.351 62.4607 33.4292 60.0772 31.8303L59.7315 31.5946L58.9268 36.7113L59.0994 36.8092C60.9553 37.8566 64.1259 38.9561 67.4674 38.9561C70.7073 38.9561 73.1 38.1679 74.5802 36.6329C75.7342 35.4283 76.3006 33.799 76.2741 31.7772C76.1987 26.719 73.7123 25.5166 68.4501 24.1239Z" fill="#0033A0"/>
<path fill-rule="evenodd" clip-rule="evenodd" d="M90.3715 33.4033L90.0709 33.4858C89.6718 33.5986 89.1676 33.6557 88.4781 33.6557C86.7581 33.6557 85.9577 32.859 85.9577 31.1364C85.9577 31.1364 85.9577 20.848 85.9577 20.3191C86.4341 20.3191 90.2139 20.3191 90.2139 20.3191L90.2925 15.3452C90.2925 15.3452 86.4372 15.3452 85.9577 15.3452C85.9577 14.8349 85.9577 8 85.9577 8H80.2491C80.2491 8 80.2491 14.8349 80.2491 15.3452C79.7931 15.3452 77.2666 15.3452 77.2666 15.3452V20.3191C77.2666 20.3191 79.7931 20.3191 80.2491 20.3191C80.2491 20.8485 80.2491 32.0369 80.2491 32.0369C80.2491 36.6755 82.6088 38.9447 87.4742 38.9447C89.044 38.9447 90.006 38.7612 90.8624 38.5699L91.1229 38.5187L90.3715 33.4033Z" fill="#0033A0"/>
<path fill-rule="evenodd" clip-rule="evenodd" d="M100.719 34.3512C99.2913 34.3512 98.4079 33.452 98.4079 32.0099C98.4079 29.4402 100.821 27.7606 105.395 27.1302V32.1626C103.975 33.5857 102.363 34.3512 100.719 34.3512ZM102.725 14.8677C99.1151 14.8677 96.3908 15.77 94.2224 16.6429L94.0166 16.7249L94.7618 21.625L95.0863 21.4782C97.6874 20.2976 99.8886 19.7469 102.033 19.7469C104.32 19.7469 105.395 20.7182 105.395 22.8093C105.395 22.8093 105.395 23.1605 105.395 23.4084C96.8226 24.3144 92.6494 27.316 92.6494 32.59C92.6494 36.4853 95.1084 39.0002 98.9218 39.0002C101.562 39.0002 103.753 38.0108 105.772 35.9945C105.882 36.6693 106.177 38.5497 106.177 38.5497H111.191V22.6511C111.191 17.3467 108.503 14.8677 102.725 14.8677Z" fill="#0033A0"/>
<path fill-rule="evenodd" clip-rule="evenodd" d="M126.08 33.4033L125.784 33.4858C125.387 33.5986 124.875 33.6557 124.198 33.6557C122.471 33.6557 121.662 32.859 121.662 31.1364C121.662 31.1364 121.662 20.848 121.662 20.3191C122.144 20.3191 125.926 20.3191 125.926 20.3191L126.005 15.3452C126.005 15.3452 122.145 15.3452 121.662 15.3452C121.662 14.8349 121.662 8 121.662 8H115.943C115.943 8 115.943 14.8349 115.943 15.3452C115.505 15.3452 112.976 15.3452 112.976 15.3452V20.3191C112.976 20.3191 115.505 20.3191 115.943 20.3191C115.943 20.8485 115.943 32.0369 115.943 32.0369C115.943 36.6755 118.318 38.9447 123.187 38.9447C124.752 38.9447 125.759 38.7521 126.574 38.5699L126.828 38.5187L126.08 33.4033Z" fill="#0033A0"/>
<path fill-rule="evenodd" clip-rule="evenodd" d="M133.56 24.4014C133.821 21.0735 135.231 19.1619 137.461 19.1619C140.461 19.1619 141.257 21.9396 141.375 24.4014H133.56ZM145.981 31.6161C143.385 33.4643 141.261 34.261 138.861 34.261C135.745 34.261 133.81 32.096 133.478 28.3294C134.065 28.3294 147.004 28.3294 147.004 28.3294L147.063 26.7418C147.063 18.8786 143.879 14.8791 137.592 14.8677C134.829 14.86 132.563 15.7497 130.858 17.5036C128.78 19.6233 127.682 22.9231 127.682 27.0128C127.682 34.4151 131.759 39.0002 138.29 39.0002C141.481 39.0002 144.376 38.087 146.9 36.3041L147.043 36.2067L146.338 31.355L145.981 31.6161Z" fill="#0033A0"/>
</svg>
